# xmcd CD database file
#
# Track frame offsets:
#	150
#	30510
#	53415
#	85398
#	123091
#	135242
#	160800
#	177265
#	208296
#	224141
#
# Disc length: 3294 seconds
#
# Revision: 0
# Processed by: cddbd v1.5.2PL0 Copyright (c) Steve Scherf et al.
# Submitted via: CDex 1.70beta3
#
DISCID=860cdc0a
DTITLE=Stephan Grappelli - And His American All Stars 1978
DYEAR=1978
DGENRE=Jazz
TTITLE0=The Lady Is A Tramp
TTITLE1=Sweet Chorus
TTITLE2=Let's Fall In Love
TTITLE3=Sweet And Lovely
TTITLE4=Tears
TTITLE5=Louise
TTITLE6=Stray Horn
TTITLE7=The Lady Is A Tramp (take 1)
TTITLE8=Stray Horn (take 2)
TTITLE9=Sweet Chorus (take 2)
EXTD=YEAR: 1978
EXTT0=
EXTT1=
EXTT2=
EXTT3=
EXTT4=
EXTT5=
EXTT6=
EXTT7=
EXTT8=
EXTT9=
PLAYORDER=
